<svg xmlns="http://www.w3.org/2000/svg" xmlns:xlink="http://www.w3.org/1999/xlink" xmlns:lucid="lucid" width="1108.52" height="1389.9"><g transform="translate(0 0)" lucid:page-tab-id="0_0"><path d="M0 0h1108.52v1389.9H0z" fill="#fff"/><path d="M542.46 93.33c-1.4-2.4-1.4-6.27 0-8.66l34.98-60.34c1.4-2.4 4.75-4.33 7.5-4.33h70c2.77 0 6.13 1.94 7.52 4.33l34.98 60.34c1.4 2.4 1.4 6.27 0 8.66l-34.98 60.34c-1.4 2.4-4.75 4.33-7.5 4.33h-70c-2.77 0-6.13-1.94-7.52-4.33z" stroke="#000" stroke-width="2" fill="#99d5ca"/><use xlink:href="#a" transform="matrix(1,0,0,1,555.95073767537,20) translate(45.025 61.8)"/><use xlink:href="#b" transform="matrix(1,0,0,1,555.95073767537,20) translate(0.5499999999999972 83.4)"/><use xlink:href="#c" transform="matrix(1,0,0,1,555.95073767537,20) translate(27.449999999999996 83.4)"/><use xlink:href="#d" transform="matrix(1,0,0,1,555.95073767537,20) translate(62.449999999999996 83.4)"/><use xlink:href="#e" transform="matrix(1,0,0,1,555.95073767537,20) translate(92.45 83.4)"/><use xlink:href="#f" transform="matrix(1,0,0,1,555.95073767537,20) translate(112.45 83.4)"/><path d="M459.95 225c0-2.76 2.24-5 5-5h310c2.76 0 5 2.24 5 5v110c0 2.76-2.24 5-5 5h-310c-2.76 0-5-2.24-5-5z" stroke="#000" stroke-width="2" fill="#99d2f2"/><use xlink:href="#g" transform="matrix(1,0,0,1,479.95073767536996,220) translate(28.375 52.8)"/><use xlink:href="#h" transform="matrix(1,0,0,1,479.95073767536996,220) translate(136.225 52.8)"/><use xlink:href="#i" transform="matrix(1,0,0,1,479.95073767536996,220) translate(151.725 52.8)"/><use xlink:href="#j" transform="matrix(1,0,0,1,479.95073767536996,220) translate(2.9499999999999886 74.4)"/><use xlink:href="#h" transform="matrix(1,0,0,1,479.95073767536996,220) translate(129.75 74.4)"/><use xlink:href="#k" transform="matrix(1,0,0,1,479.95073767536996,220) translate(145.25 74.4)"/><path d="M619.95 160v40.5" stroke="#000" stroke-width="2" fill="none"/><path d="M620.95 160.03h-2V159h2z"/><path d="M619.95 215.76l-4.63-14.26h9.27z" stroke="#000" stroke-width="2"/><path d="M667.95 1220c17.67 0 32 17.9 32 40s-14.33 40-32 40h-96c-17.67 0-32-17.9-32-40s14.33-40 32-40z" stroke="#000" stroke-width="2" fill="#99d5ca"/><use xlink:href="#l" transform="matrix(1,0,0,1,555.95073767537,1220) translate(21.624999999999993 43.6)"/><path d="M459.95 667c0-2.76 2.24-5 5-5h310c2.76 0 5 2.24 5 5v110c0 2.76-2.24 5-5 5h-310c-2.76 0-5-2.24-5-5z" stroke="#000" stroke-width="2" fill="#99d2f2"/><use xlink:href="#m" transform="matrix(1,0,0,1,479.95073767536996,662) translate(66.35 42)"/><use xlink:href="#n" transform="matrix(1,0,0,1,479.95073767536996,662) translate(203.15 42)"/><use xlink:href="#o" transform="matrix(1,0,0,1,479.95073767536996,662) translate(62.150000000000006 63.6)"/><use xlink:href="#p" transform="matrix(1,0,0,1,479.95073767536996,662) translate(82.625 85.20000000000002)"/><path d="M619.95 342v41.83" stroke="#000" stroke-width="2" fill="none"/><path d="M620.95 342.03h-2V341h2z"/><path d="M619.95 399.1l-4.63-14.27h9.27z" stroke="#000" stroke-width="2"/><path d="M615.47 404.22c2.47-1.23 6.5-1.23 8.96 0l191.04 94.56c2.47 1.23 2.47 3.2 0 4.44l-191.04 94.56c-2.47 1.23-6.5 1.23-8.96 0l-191.04-94.56c-2.47-1.23-2.47-3.2 0-4.44z" stroke="#000" stroke-width="2" fill="#ffc374"/><use xlink:href="#q" transform="matrix(1,0,0,1,519.95073767537,451.5) translate(-20.799999999999983 31.5)"/><use xlink:href="#r" transform="matrix(1,0,0,1,519.95073767537,451.5) translate(88 53.1)"/><use xlink:href="#s" transform="matrix(1,0,0,1,519.95073767537,451.5) translate(-42.74999999999997 74.7)"/><path d="M620.95 642.5h-2v-1.37h2zm0-22.97h-2v-18.86h2z"/><path d="M620.5 599.7l.45-.06v1.05h-2v-1.08zM619.95 657.76l-4.63-14.26h9.27z"/><path d="M619.95 661l-6-18.5h12zm-3.26-16.5l3.25 10.03 3.26-10.03z"/><use xlink:href="#t" transform="matrix(1,0,0,1,605.27573767537,619.5344824173435) translate(0 14.4)"/><path d="M459.95 849c0-2.76 2.24-5 5-5h310c2.76 0 5 2.24 5 5v110c0 2.76-2.24 5-5 5h-310c-2.76 0-5-2.24-5-5z" stroke="#000" stroke-width="2" fill="#99d2f2"/><use xlink:href="#u" transform="matrix(1,0,0,1,479.95073767536996,844) translate(1.4749999999999943 63.6)"/><use xlink:href="#h" transform="matrix(1,0,0,1,479.95073767536996,844) translate(141.225 63.6)"/><use xlink:href="#v" transform="matrix(1,0,0,1,479.95073767536996,844) translate(156.725 63.6)"/><path d="M919.58 723.2l-2.65 15.67-3.22 15.15-3.7 14.4-4.07 13.52-4.36 12.53-4.55 11.5-4.67 10.5-4.72 9.52-4.73 8.6-4.7 7.76-4.65 7-4.58 6.3-4.5 5.7-4.4 5.1-4.35 4.62-4.24 4.16-4.17 3.75-4.1 3.38-4.02 3.06-3.97 2.77-3.92 2.5-3.87 2.23-3.84 2-3.82 1.8-3.8 1.6-3.8 1.42-3.78 1.23-3.8 1.06-3.83.9-1.2.23-.38-1.96 1.17-.22 3.74-.87 3.72-1.03 3.7-1.2 3.73-1.4 3.73-1.56 3.74-1.75 3.77-1.97 3.8-2.2 3.86-2.44 3.9-2.7 3.97-3.02 4.03-3.34 4.1-3.7 4.2-4.1 4.27-4.56 4.36-5.05 4.45-5.6 4.52-6.25 4.6-6.93 4.66-7.7 4.7-8.54 4.68-9.44 4.63-10.42 4.53-11.43 4.33-12.44 4.05-13.44 3.68-14.33 3.2-15.07 2.64-15.6.36-2.9h2.02zm-97.2-223.12l3.86.25 3.73.4 3.6.52 3.5.67 3.38.8 3.3.9 3.23 1.06 3.16 1.18 3.1 1.3 3.05 1.43 3 1.57 2.97 1.72 2.95 1.86 2.93 2.04 2.9 2.2 2.9 2.4 2.9 2.6 2.9 2.85 2.9 3.08 2.9 3.36 2.9 3.65 2.9 4 2.9 4.37 2.9 4.8 2.9 5.25 2.86 5.8 2.85 6.37 2.78 7.03 2.7 7.75 2.57 8.55 2.4 9.4 2.2 10.36 1.92 11.33 1.56 12.33 1.1 13.3.6 14.22v15l-.66 15.56-.6 7.02h-2l.6-7.14.66-15.5v-14.9l-.6-14.13-1.1-13.23-1.54-12.25-1.9-11.24-2.17-10.26-2.4-9.34-2.55-8.47-2.67-7.67-2.75-6.95-2.8-6.3-2.83-5.7-2.85-5.2-2.86-4.7-2.86-4.3-2.85-3.94-2.85-3.6-2.84-3.3-2.84-3-2.83-2.8-2.84-2.54-2.84-2.35-2.85-2.16-2.85-1.97-2.88-1.83-2.9-1.68-2.94-1.53-2.98-1.4-3.02-1.28-3.08-1.15-3.15-1.02-3.22-.9-3.3-.78-3.4-.65-3.53-.52-3.64-.38-3.8-.24-2.97-.06.05-2z"/><path d="M819.37 500.02l-.04 2-1.57-.03.78-1.38-.58-.63zM798.82 906.9l-14.65-3.22 13.74-6z"/><path d="M799.95 908.17l-19-4.17 17.82-7.8zm-12.56-4.8l10.3 2.25-.65-6.48z"/><use xlink:href="#w" transform="matrix(1,0,0,1,908.8618280583623,698.4046749925094) translate(0 14.4)"/><path d="M457.95 721.98l-1.27-.03-2.25-.14-2.24-.22-2.23-.33-2.22-.43-2.22-.52-2.24-.62-2.25-.73-2.27-.84-2.3-.96-2.3-1.1-2.37-1.22-2.4-1.4-2.44-1.55-2.5-1.74-2.57-1.95-2.64-2.18-2.7-2.43-2.78-2.72-2.85-3.04-2.93-3.38-3-3.8-3.06-4.2-3.13-4.72-3.15-5.22-3.18-5.8-3.15-6.35-3.1-6.94-2.96-7.52-2.8-8-2.53-8.43-2.24-8.7-1.88-8.84-1.5-8.8-1.08-8.58-.7-8.25-.32-7.8v-7.27l.28-6.72.5-6.16.72-5.62.86-5.1 1-4.63 1.06-4.2 1.15-3.8 1.2-3.45 1.23-3.13 1.27-2.87 1.3-2.6 1.3-2.38 1.32-2.18 1.33-2 1.34-1.84 1.33-1.7 1.35-1.57 1.36-1.45 1.37-1.33 1.4-1.24 1.4-1.16 1.4-1.07 1.43-1 1.45-.9 1.48-.86 1.5-.8 1.54-.7.45-.2" stroke="#000" stroke-width="2" fill="none"/><path d="M458.95 721v2l-1.05-.02.04-2z"/><path d="M418.4 501.62l-13.1 7.3-1.8-9.1z" stroke="#000" stroke-width="2"/><path d="M615.37 1028c2.53-1.1 6.63-1.1 9.16 0l150.84 66c2.53 1.1 2.53 2.9 0 4l-150.84 66c-2.53 1.1-6.63 1.1-9.16 0l-150.84-66c-2.53-1.1-2.53-2.9 0-4z" stroke="#000" stroke-width="2" fill="#ffc374"/><g><use xlink:href="#x" transform="matrix(1,0,0,1,539.95073767537,1061) translate(22.299999999999997 27.799999999999997)"/><use xlink:href="#n" transform="matrix(1,0,0,1,539.95073767537,1061) translate(127.2 27.799999999999997)"/><use xlink:href="#y" transform="matrix(1,0,0,1,539.95073767537,1061) translate(32.1 49.4)"/><use xlink:href="#z" transform="matrix(1,0,0,1,539.95073767537,1061) translate(111.94999999999999 49.4)"/></g><path d="M620.95 1181.6h-2v-14.8h2z"/><path d="M620.62 1165.8l.33-.02v1.04h-2v-1.06zM619.95 1215.76l-4.08-12.56h8.16z"/><path d="M619.95 1219l-5.13-15.8h2.1l3.03 9.33 3.03-9.33h2.1z"/><g><use xlink:href="#t" transform="matrix(1,0,0,1,605.27573767537,1181.5973020367062) translate(0 14.4)"/></g><path d="M181 719.9l.13 11 1.03 24.6 1.98 23.62 2.85 22.6 3.62 21.5 4.34 20.45 4.97 19.35 5.5 18.28 6 17.2 6.4 16.2 6.76 15.18 7.05 14.2 7.3 13.3 7.53 12.43 7.7 11.6 7.84 10.8 7.97 10.07 8.07 9.36 8.18 8.7 8.26 8.1 8.34 7.5 8.4 6.96 8.5 6.43 8.55 5.95 8.62 5.48 8.72 5.03 8.8 4.6 8.9 4.2 9.03 3.78 9.14 3.4 9.3 3.02 9.43 2.63 9.6 2.26 9.82 1.86 10.02 1.48 10.25 1.07 10.52.67 9.84.2-.04 2-9.88-.2-10.6-.66-10.35-1.08-10.1-1.5-9.87-1.88-9.7-2.27-9.5-2.66-9.38-3.03-9.22-3.43-9.1-3.82-8.98-4.23-8.88-4.66-8.8-5.07-8.7-5.52-8.6-6-8.56-6.5-8.46-7-8.4-7.56-8.32-8.16-8.23-8.77-8.15-9.43-8.02-10.13-7.9-10.86-7.74-11.66-7.58-12.5-7.34-13.36-7.1-14.3-6.78-15.25-6.44-16.26-6.02-17.28-5.54-18.36-4.98-19.44-4.36-20.52L185 802l-2.85-22.67-2-23.7-1.02-24.7-.13-11.02.24-13.22h2zm259.57-437.97l-1.5.13-7.6 1-7.54 1.28-7.52 1.62-7.5 1.95-7.5 2.3-7.52 2.64-7.57 3.02-7.6 3.42-7.7 3.85-7.77 4.3-7.88 4.8-8 5.35-8.12 5.93-8.26 6.6-8.4 7.3-8.57 8.1-8.72 8.95-8.87 9.9-9 10.97-9.14 12.1-9.24 13.38-9.28 14.72-9.27 16.17-9.18 17.7-9 19.25-8.7 20.83-8.24 22.37-7.65 23.8-6.9 25-6.03 26.02-5 26.7-3.93 27-2.76 27-1.07 17.7h-2l1.1-17.87 2.76-27.07 3.92-27.1 5.03-26.77 6.06-26.1 6.93-25.1 7.67-23.86 8.27-22.45 8.72-20.9 9.03-19.35 9.2-17.76 9.33-16.25 9.32-14.8 9.28-13.44 9.2-12.18 9.06-11.03 8.92-9.97 8.78-9.02 8.62-8.14 8.47-7.36 8.32-6.64 8.2-5.98 8.05-5.4 7.95-4.84 7.85-4.34 7.77-3.9 7.7-3.44 7.64-3.05 7.6-2.67 7.6-2.32 7.57-1.96 7.6-1.64 7.63-1.3 7.68-1 1.53-.14zM462.2 1095.02l-.94 1 .96 1-2-.04.04-2zM455.72 280.16l-14 5.36-.48-9.26z"/><path d="M458.95 280l-18.17 6.94-.6-12zm-16.3 4.1l9.84-3.77-10.2-2.75z"/><g><use xlink:href="#w" transform="matrix(1,0,0,1,168.96570390742397,685.0794703076216) translate(0 14.4)"/></g><path d="M619.95 966v41.7" stroke="#000" stroke-width="2" fill="none"/><path d="M620.95 966.03h-2V965h2z"/><path d="M619.95 1022.97l-4.63-14.27h9.27z" stroke="#000" stroke-width="2"/><defs><path d="M185-189c-5-48-123-54-124 2 14 75 158 14 163 119 3 78-121 87-175 55-17-10-28-26-33-46l33-7c5 56 141 63 141-1 0-78-155-14-162-118-5-82 145-84 179-34 5 7 8 16 11 25" id="A"/><path d="M59-47c-2 24 18 29 38 22v24C64 9 27 4 27-40v-127H5v-23h24l9-43h21v43h35v23H59v120" id="B"/><path d="M141-36C126-15 110 5 73 4 37 3 15-17 15-53c-1-64 63-63 125-63 3-35-9-54-41-54-24 1-41 7-42 31l-33-3c5-37 33-52 76-52 45 0 72 20 72 64v82c-1 20 7 32 28 27v20c-31 9-61-2-59-35zM48-53c0 20 12 33 32 33 41-3 63-29 60-74-43 2-92-5-92 41" id="C"/><path d="M114-163C36-179 61-72 57 0H25l-1-190h30c1 12-1 29 2 39 6-27 23-49 58-41v29" id="D"/><g id="a"><use transform="matrix(0.05,0,0,0.05,0,0)" xlink:href="#A"/><use transform="matrix(0.05,0,0,0.05,12,0)" xlink:href="#B"/><use transform="matrix(0.05,0,0,0.05,17,0)" xlink:href="#C"/><use transform="matrix(0.05,0,0,0.05,27,0)" xlink:href="#D"/><use transform="matrix(0.05,0,0,0.05,32.95,0)" xlink:href="#B"/></g><g id="b"><use transform="matrix(0.05,0,0,0.05,0,0)" xlink:href="#C"/><use transform="matrix(0.05,0,0,0.05,10,0)" xlink:href="#D"/><use transform="matrix(0.05,0,0,0.05,15.949999999999998,0)" xlink:href="#D"/></g><path d="M26 75v-336h71v23H56V52h41v23H26" id="E"/><path d="M117-194c89-4 53 116 60 194h-32v-121c0-31-8-49-39-48C34-167 62-67 57 0H25l-1-190h30c1 10-1 24 2 32 11-22 29-35 61-36" id="F"/><path d="M27 0v-27h64v-190l-56 39v-29l58-41h29v221h61V0H27" id="G"/><path d="M68-38c1 34 0 65-14 84H32c9-13 17-26 17-46H33v-38h35" id="H"/><g id="c"><use transform="matrix(0.05,0,0,0.05,0,0)" xlink:href="#E"/><use transform="matrix(0.05,0,0,0.05,5,0)" xlink:href="#F"/><use transform="matrix(0.05,0,0,0.05,15,0)" xlink:href="#G"/><use transform="matrix(0.05,0,0,0.05,25,0)" xlink:href="#H"/></g><path d="M101-251c82-7 93 87 43 132L82-64C71-53 59-42 53-27h129V0H18c2-99 128-94 128-182 0-28-16-43-45-43s-46 15-49 41l-32-3c6-41 34-60 81-64" id="I"/><g id="d"><use transform="matrix(0.05,0,0,0.05,0,0)" xlink:href="#F"/><use transform="matrix(0.05,0,0,0.05,10,0)" xlink:href="#I"/><use transform="matrix(0.05,0,0,0.05,20,0)" xlink:href="#H"/></g><path d="M33 0v-38h34V0H33" id="J"/><g id="e"><use transform="matrix(0.05,0,0,0.05,0,0)" xlink:href="#J"/><use transform="matrix(0.05,0,0,0.05,5,0)" xlink:href="#J"/><use transform="matrix(0.05,0,0,0.05,10,0)" xlink:href="#J"/></g><path d="M3 75V52h41v-290H3v-23h71V75H3" id="K"/><g id="f"><use transform="matrix(0.05,0,0,0.05,0,0)" xlink:href="#F"/><use transform="matrix(0.05,0,0,0.05,10,0)" xlink:href="#K"/></g><path d="M24-231v-30h32v30H24zM24 0v-190h32V0H24" id="L"/><path d="M100-194c63 0 86 42 84 106H49c0 40 14 67 53 68 26 1 43-12 49-29l28 8c-11 28-37 45-77 45C44 4 14-33 15-96c1-61 26-98 85-98zm52 81c6-60-76-77-97-28-3 7-6 17-6 28h103" id="M"/><path d="M115-194c53 0 69 39 70 98 0 66-23 100-70 100C84 3 66-7 56-30L54 0H23l1-261h32v101c10-23 28-34 59-34zm-8 174c40 0 45-34 45-75 0-40-5-75-45-74-42 0-51 32-51 76 0 43 10 73 51 73" id="N"/><path d="M24 0v-261h32V0H24" id="O"/><path d="M33 0v-248h34V0H33" id="P"/><path d="M85-194c31 0 48 13 60 33l-1-100h32l1 261h-30c-2-10 0-23-3-31C134-8 116 4 85 4 32 4 16-35 15-94c0-66 23-100 70-100zm9 24c-40 0-46 34-46 75 0 40 6 74 45 74 42 0 51-32 51-76 0-42-9-74-50-73" id="Q"/><path d="M141 0L90-78 38 0H4l68-98-65-92h35l48 74 47-74h35l-64 92 68 98h-35" id="R"/><g id="g"><use transform="matrix(0.05,0,0,0.05,0,0)" xlink:href="#L"/><use transform="matrix(0.05,0,0,0.05,3.95,0)" xlink:href="#B"/><use transform="matrix(0.05,0,0,0.05,8.95,0)" xlink:href="#M"/><use transform="matrix(0.05,0,0,0.05,18.95,0)" xlink:href="#D"/><use transform="matrix(0.05,0,0,0.05,24.9,0)" xlink:href="#C"/><use transform="matrix(0.05,0,0,0.05,34.9,0)" xlink:href="#N"/><use transform="matrix(0.05,0,0,0.05,44.9,0)" xlink:href="#O"/><use transform="matrix(0.05,0,0,0.05,48.85,0)" xlink:href="#M"/><use transform="matrix(0.05,0,0,0.05,58.85,0)" xlink:href="#P"/><use transform="matrix(0.05,0,0,0.05,63.85,0)" xlink:href="#F"/><use transform="matrix(0.05,0,0,0.05,73.85,0)" xlink:href="#Q"/><use transform="matrix(0.05,0,0,0.05,83.85,0)" xlink:href="#M"/><use transform="matrix(0.05,0,0,0.05,93.85,0)" xlink:href="#R"/></g><path d="M18-150v-26h174v26H18zm0 90v-26h174v26H18" id="S"/><use transform="matrix(0.05,0,0,0.05,0,0)" xlink:href="#S" id="h"/><path d="M96-169c-40 0-48 33-48 73s9 75 48 75c24 0 41-14 43-38l32 2c-6 37-31 61-74 61-59 0-76-41-82-99-10-93 101-131 147-64 4 7 5 14 7 22l-32 3c-4-21-16-35-41-35" id="T"/><path d="M84 4C-5 8 30-112 23-190h32v120c0 31 7 50 39 49 72-2 45-101 50-169h31l1 190h-30c-1-10 1-25-2-33-11 22-28 36-60 37" id="U"/><g id="i"><use transform="matrix(0.05,0,0,0.05,0,0)" xlink:href="#T"/><use transform="matrix(0.05,0,0,0.05,9,0)" xlink:href="#U"/><use transform="matrix(0.05,0,0,0.05,19,0)" xlink:href="#D"/><use transform="matrix(0.05,0,0,0.05,24.95,0)" xlink:href="#D"/><use transform="matrix(0.05,0,0,0.05,30.899999999999995,0)" xlink:href="#M"/><use transform="matrix(0.05,0,0,0.05,40.9,0)" xlink:href="#F"/><use transform="matrix(0.05,0,0,0.05,50.9,0)" xlink:href="#B"/><use transform="matrix(0.05,0,0,0.05,55.900000000000006,0)" xlink:href="#P"/><use transform="matrix(0.05,0,0,0.05,60.900000000000006,0)" xlink:href="#F"/><use transform="matrix(0.05,0,0,0.05,70.9,0)" xlink:href="#Q"/><use transform="matrix(0.05,0,0,0.05,80.9,0)" xlink:href="#M"/><use transform="matrix(0.05,0,0,0.05,90.9,0)" xlink:href="#R"/></g><path d="M30 0v-248h187v28H63v79h144v27H63v87h162V0H30" id="V"/><path d="M210-169c-67 3-38 105-44 169h-31v-121c0-29-5-50-35-48C34-165 62-65 56 0H25l-1-190h30c1 10-1 24 2 32 10-44 99-50 107 0 11-21 27-35 58-36 85-2 47 119 55 194h-31v-121c0-29-5-49-35-48" id="W"/><g id="j"><use transform="matrix(0.05,0,0,0.05,0,0)" xlink:href="#T"/><use transform="matrix(0.05,0,0,0.05,9,0)" xlink:href="#U"/><use transform="matrix(0.05,0,0,0.05,19,0)" xlink:href="#D"/><use transform="matrix(0.05,0,0,0.05,24.95,0)" xlink:href="#D"/><use transform="matrix(0.05,0,0,0.05,30.899999999999995,0)" xlink:href="#M"/><use transform="matrix(0.05,0,0,0.05,40.9,0)" xlink:href="#F"/><use transform="matrix(0.05,0,0,0.05,50.9,0)" xlink:href="#B"/><use transform="matrix(0.05,0,0,0.05,55.900000000000006,0)" xlink:href="#V"/><use transform="matrix(0.05,0,0,0.05,67.9,0)" xlink:href="#O"/><use transform="matrix(0.05,0,0,0.05,71.85000000000001,0)" xlink:href="#M"/><use transform="matrix(0.05,0,0,0.05,81.85000000000001,0)" xlink:href="#W"/><use transform="matrix(0.05,0,0,0.05,96.80000000000001,0)" xlink:href="#M"/><use transform="matrix(0.05,0,0,0.05,106.80000000000001,0)" xlink:href="#F"/><use transform="matrix(0.05,0,0,0.05,116.80000000000001,0)" xlink:href="#B"/></g><g id="k"><use transform="matrix(0.05,0,0,0.05,0,0)" xlink:href="#C"/><use transform="matrix(0.05,0,0,0.05,10,0)" xlink:href="#D"/><use transform="matrix(0.05,0,0,0.05,15.949999999999998,0)" xlink:href="#D"/><use transform="matrix(0.05,0,0,0.05,21.9,0)" xlink:href="#E"/><use transform="matrix(0.05,0,0,0.05,26.899999999999995,0)" xlink:href="#T"/><use transform="matrix(0.05,0,0,0.05,35.9,0)" xlink:href="#U"/><use transform="matrix(0.05,0,0,0.05,45.9,0)" xlink:href="#D"/><use transform="matrix(0.05,0,0,0.05,51.85,0)" xlink:href="#D"/><use transform="matrix(0.05,0,0,0.05,57.800000000000004,0)" xlink:href="#M"/><use transform="matrix(0.05,0,0,0.05,67.80000000000001,0)" xlink:href="#F"/><use transform="matrix(0.05,0,0,0.05,77.80000000000001,0)" xlink:href="#B"/><use transform="matrix(0.05,0,0,0.05,82.80000000000001,0)" xlink:href="#P"/><use transform="matrix(0.05,0,0,0.05,87.80000000000001,0)" xlink:href="#F"/><use transform="matrix(0.05,0,0,0.05,97.80000000000001,0)" xlink:href="#Q"/><use transform="matrix(0.05,0,0,0.05,107.80000000000001,0)" xlink:href="#M"/><use transform="matrix(0.05,0,0,0.05,117.80000000000001,0)" xlink:href="#R"/><use transform="matrix(0.05,0,0,0.05,126.80000000000001,0)" xlink:href="#K"/></g><path d="M127-220V0H93v-220H8v-28h204v28h-85" id="X"/><path d="M100-194c62-1 85 37 85 99 1 63-27 99-86 99S16-35 15-95c0-66 28-99 85-99zM99-20c44 1 53-31 53-75 0-43-8-75-51-75s-53 32-53 75 10 74 51 75" id="Y"/><g id="l"><use transform="matrix(0.05,0,0,0.05,0,0)" xlink:href="#X"/><use transform="matrix(0.05,0,0,0.05,8.950000000000001,0)" xlink:href="#M"/><use transform="matrix(0.05,0,0,0.05,18.950000000000003,0)" xlink:href="#D"/><use transform="matrix(0.05,0,0,0.05,24.900000000000002,0)" xlink:href="#W"/><use transform="matrix(0.05,0,0,0.05,39.85,0)" xlink:href="#L"/><use transform="matrix(0.05,0,0,0.05,43.800000000000004,0)" xlink:href="#F"/><use transform="matrix(0.05,0,0,0.05,53.800000000000004,0)" xlink:href="#C"/><use transform="matrix(0.05,0,0,0.05,63.800000000000004,0)" xlink:href="#B"/><use transform="matrix(0.05,0,0,0.05,68.80000000000001,0)" xlink:href="#Y"/><use transform="matrix(0.05,0,0,0.05,78.80000000000001,0)" xlink:href="#D"/></g><g id="m"><use transform="matrix(0.05,0,0,0.05,0,0)" xlink:href="#C"/><use transform="matrix(0.05,0,0,0.05,10,0)" xlink:href="#D"/><use transform="matrix(0.05,0,0,0.05,15.949999999999998,0)" xlink:href="#D"/><use transform="matrix(0.05,0,0,0.05,21.9,0)" xlink:href="#E"/><use transform="matrix(0.05,0,0,0.05,26.899999999999995,0)" xlink:href="#T"/><use transform="matrix(0.05,0,0,0.05,35.9,0)" xlink:href="#U"/><use transform="matrix(0.05,0,0,0.05,45.9,0)" xlink:href="#D"/><use transform="matrix(0.05,0,0,0.05,51.85,0)" xlink:href="#D"/><use transform="matrix(0.05,0,0,0.05,57.800000000000004,0)" xlink:href="#M"/><use transform="matrix(0.05,0,0,0.05,67.80000000000001,0)" xlink:href="#F"/><use transform="matrix(0.05,0,0,0.05,77.80000000000001,0)" xlink:href="#B"/><use transform="matrix(0.05,0,0,0.05,82.80000000000001,0)" xlink:href="#P"/><use transform="matrix(0.05,0,0,0.05,87.80000000000001,0)" xlink:href="#F"/><use transform="matrix(0.05,0,0,0.05,97.80000000000001,0)" xlink:href="#Q"/><use transform="matrix(0.05,0,0,0.05,107.80000000000001,0)" xlink:href="#M"/><use transform="matrix(0.05,0,0,0.05,117.80000000000001,0)" xlink:href="#R"/><use transform="matrix(0.05,0,0,0.05,126.80000000000001,0)" xlink:href="#K"/></g><use transform="matrix(0.05,0,0,0.05,0,0)" xlink:href="#S" id="n"/><path d="M16-82v-28h88v28H16" id="Z"/><path d="M68-36c1 33-1 63-14 82H32c9-13 17-26 17-46H33v-36h35zM33-154v-36h35v36H33" id="aa"/><g id="o"><use transform="matrix(0.05,0,0,0.05,0,0)" xlink:href="#C"/><use transform="matrix(0.05,0,0,0.05,10,0)" xlink:href="#D"/><use transform="matrix(0.05,0,0,0.05,15.949999999999998,0)" xlink:href="#D"/><use transform="matrix(0.05,0,0,0.05,21.9,0)" xlink:href="#E"/><use transform="matrix(0.05,0,0,0.05,26.899999999999995,0)" xlink:href="#L"/><use transform="matrix(0.05,0,0,0.05,30.849999999999994,0)" xlink:href="#B"/><use transform="matrix(0.05,0,0,0.05,35.849999999999994,0)" xlink:href="#M"/><use transform="matrix(0.05,0,0,0.05,45.849999999999994,0)" xlink:href="#D"/><use transform="matrix(0.05,0,0,0.05,51.79999999999999,0)" xlink:href="#C"/><use transform="matrix(0.05,0,0,0.05,61.79999999999999,0)" xlink:href="#N"/><use transform="matrix(0.05,0,0,0.05,71.8,0)" xlink:href="#O"/><use transform="matrix(0.05,0,0,0.05,75.75,0)" xlink:href="#M"/><use transform="matrix(0.05,0,0,0.05,85.75,0)" xlink:href="#P"/><use transform="matrix(0.05,0,0,0.05,90.75,0)" xlink:href="#F"/><use transform="matrix(0.05,0,0,0.05,100.75,0)" xlink:href="#Q"/><use transform="matrix(0.05,0,0,0.05,110.75,0)" xlink:href="#M"/><use transform="matrix(0.05,0,0,0.05,120.75,0)" xlink:href="#R"/><use transform="matrix(0.05,0,0,0.05,129.75,0)" xlink:href="#Z"/><use transform="matrix(0.05,0,0,0.05,135.7,0)" xlink:href="#G"/><use transform="matrix(0.05,0,0,0.05,145.7,0)" xlink:href="#K"/><use transform="matrix(0.05,0,0,0.05,150.7,0)" xlink:href="#aa"/></g><g id="p"><use transform="matrix(0.05,0,0,0.05,0,0)" xlink:href="#L"/><use transform="matrix(0.05,0,0,0.05,3.95,0)" xlink:href="#B"/><use transform="matrix(0.05,0,0,0.05,8.95,0)" xlink:href="#M"/><use transform="matrix(0.05,0,0,0.05,18.95,0)" xlink:href="#D"/><use transform="matrix(0.05,0,0,0.05,24.9,0)" xlink:href="#C"/><use transform="matrix(0.05,0,0,0.05,34.9,0)" xlink:href="#N"/><use transform="matrix(0.05,0,0,0.05,44.9,0)" xlink:href="#O"/><use transform="matrix(0.05,0,0,0.05,48.85,0)" xlink:href="#M"/><use transform="matrix(0.05,0,0,0.05,58.85,0)" xlink:href="#P"/><use transform="matrix(0.05,0,0,0.05,63.85,0)" xlink:href="#F"/><use transform="matrix(0.05,0,0,0.05,73.85,0)" xlink:href="#Q"/><use transform="matrix(0.05,0,0,0.05,83.85,0)" xlink:href="#M"/><use transform="matrix(0.05,0,0,0.05,93.85,0)" xlink:href="#R"/><use transform="matrix(0.05,0,0,0.05,102.84999999999998,0)" xlink:href="#Z"/><use transform="matrix(0.05,0,0,0.05,108.80000000000001,0)" xlink:href="#Z"/></g><path d="M143 4C61 4 22-44 18-125c-5-107 100-154 193-111 17 8 29 25 37 43l-32 9c-13-25-37-40-76-40-61 0-88 39-88 99 0 61 29 100 91 101 35 0 62-11 79-27v-45h-74v-28h105v86C228-13 192 4 143 4" id="ab"/><path d="M106-169C34-169 62-67 57 0H25v-261h32l-1 103c12-21 28-36 61-36 89 0 53 116 60 194h-32v-121c2-32-8-49-39-48" id="ac"/><path d="M209 0H11v-25l151-195H24v-28h176v25L50-27h159V0" id="ad"/><g id="q"><use transform="matrix(0.05,0,0,0.05,0,0)" xlink:href="#L"/><use transform="matrix(0.05,0,0,0.05,3.95,0)" xlink:href="#B"/><use transform="matrix(0.05,0,0,0.05,8.95,0)" xlink:href="#M"/><use transform="matrix(0.05,0,0,0.05,18.95,0)" xlink:href="#D"/><use transform="matrix(0.05,0,0,0.05,24.9,0)" xlink:href="#C"/><use transform="matrix(0.05,0,0,0.05,34.9,0)" xlink:href="#N"/><use transform="matrix(0.05,0,0,0.05,44.9,0)" xlink:href="#O"/><use transform="matrix(0.05,0,0,0.05,48.85,0)" xlink:href="#M"/><use transform="matrix(0.05,0,0,0.05,58.85,0)" xlink:href="#P"/><use transform="matrix(0.05,0,0,0.05,63.85,0)" xlink:href="#F"/><use transform="matrix(0.05,0,0,0.05,73.85,0)" xlink:href="#Q"/><use transform="matrix(0.05,0,0,0.05,83.85,0)" xlink:href="#M"/><use transform="matrix(0.05,0,0,0.05,93.85,0)" xlink:href="#R"/><use transform="matrix(0.05,0,0,0.05,102.84999999999998,0)" xlink:href="#ab"/><use transform="matrix(0.05,0,0,0.05,116.84999999999998,0)" xlink:href="#D"/><use transform="matrix(0.05,0,0,0.05,122.80000000000001,0)" xlink:href="#M"/><use transform="matrix(0.05,0,0,0.05,132.8,0)" xlink:href="#C"/><use transform="matrix(0.05,0,0,0.05,142.8,0)" xlink:href="#B"/><use transform="matrix(0.05,0,0,0.05,147.8,0)" xlink:href="#M"/><use transform="matrix(0.05,0,0,0.05,157.8,0)" xlink:href="#D"/><use transform="matrix(0.05,0,0,0.05,163.75,0)" xlink:href="#X"/><use transform="matrix(0.05,0,0,0.05,174.7,0)" xlink:href="#ac"/><use transform="matrix(0.05,0,0,0.05,184.7,0)" xlink:href="#C"/><use transform="matrix(0.05,0,0,0.05,194.7,0)" xlink:href="#F"/><use transform="matrix(0.05,0,0,0.05,204.7,0)" xlink:href="#ad"/><use transform="matrix(0.05,0,0,0.05,215.64999999999998,0)" xlink:href="#M"/><use transform="matrix(0.05,0,0,0.05,225.64999999999998,0)" xlink:href="#D"/><use transform="matrix(0.05,0,0,0.05,231.59999999999997,0)" xlink:href="#Y"/></g><path d="M234-2c-28 10-62 0-77-18C117 19 8 12 13-65c3-43 29-61 60-76-25-40-17-114 47-108 35 3 59 15 59 50 0 44-40 53-71 69 14 26 32 50 51 72 14-21 24-43 30-72l26 8c-9 33-21 57-38 82 13 13 33 22 57 15v23zM97-151c25-10 52-18 56-48-1-18-13-29-33-29-42 0-39 50-23 77zM42-66c-3 51 71 58 98 28-20-24-41-51-56-80-23 10-40 24-42 52" id="ae"/><g id="r"><use transform="matrix(0.05,0,0,0.05,0,0)" xlink:href="#ae"/><use transform="matrix(0.05,0,0,0.05,12,0)" xlink:href="#ae"/></g><path d="M115-194c55 1 70 41 70 98S169 2 115 4C84 4 66-9 55-30l1 105H24l-1-265h31l2 30c10-21 28-34 59-34zm-8 174c40 0 45-34 45-75s-6-73-45-74c-42 0-51 32-51 76 0 43 10 73 51 73" id="af"/><path d="M108 0H70L1-190h34L89-25l56-165h34" id="ag"/><path d="M135-143c-3-34-86-38-87 0 15 53 115 12 119 90S17 21 10-45l28-5c4 36 97 45 98 0-10-56-113-15-118-90-4-57 82-63 122-42 12 7 21 19 24 35" id="ah"/><path d="M212-179c-10-28-35-45-73-45-59 0-87 40-87 99 0 60 29 101 89 101 43 0 62-24 78-52l27 14C228-24 195 4 139 4 59 4 22-46 18-125c-6-104 99-153 187-111 19 9 31 26 39 46" id="ai"/><g id="s"><use transform="matrix(0.05,0,0,0.05,0,0)" xlink:href="#af"/><use transform="matrix(0.05,0,0,0.05,10,0)" xlink:href="#D"/><use transform="matrix(0.05,0,0,0.05,15.949999999999998,0)" xlink:href="#M"/><use transform="matrix(0.05,0,0,0.05,25.950000000000003,0)" xlink:href="#ag"/><use transform="matrix(0.05,0,0,0.05,34.95,0)" xlink:href="#L"/><use transform="matrix(0.05,0,0,0.05,38.900000000000006,0)" xlink:href="#U"/><use transform="matrix(0.05,0,0,0.05,48.900000000000006,0)" xlink:href="#ah"/><use transform="matrix(0.05,0,0,0.05,57.900000000000006,0)" xlink:href="#V"/><use transform="matrix(0.05,0,0,0.05,69.9,0)" xlink:href="#O"/><use transform="matrix(0.05,0,0,0.05,73.85000000000001,0)" xlink:href="#M"/><use transform="matrix(0.05,0,0,0.05,83.85000000000001,0)" xlink:href="#W"/><use transform="matrix(0.05,0,0,0.05,98.80000000000001,0)" xlink:href="#M"/><use transform="matrix(0.05,0,0,0.05,108.80000000000001,0)" xlink:href="#F"/><use transform="matrix(0.05,0,0,0.05,118.80000000000001,0)" xlink:href="#B"/><use transform="matrix(0.05,0,0,0.05,123.80000000000001,0)" xlink:href="#ab"/><use transform="matrix(0.05,0,0,0.05,137.8,0)" xlink:href="#D"/><use transform="matrix(0.05,0,0,0.05,143.75,0)" xlink:href="#M"/><use transform="matrix(0.05,0,0,0.05,153.75,0)" xlink:href="#C"/><use transform="matrix(0.05,0,0,0.05,163.75,0)" xlink:href="#B"/><use transform="matrix(0.05,0,0,0.05,168.75,0)" xlink:href="#M"/><use transform="matrix(0.05,0,0,0.05,178.75,0)" xlink:href="#D"/><use transform="matrix(0.05,0,0,0.05,184.7,0)" xlink:href="#X"/><use transform="matrix(0.05,0,0,0.05,195.64999999999998,0)" xlink:href="#ac"/><use transform="matrix(0.05,0,0,0.05,205.64999999999998,0)" xlink:href="#C"/><use transform="matrix(0.05,0,0,0.05,215.64999999999998,0)" xlink:href="#F"/><use transform="matrix(0.05,0,0,0.05,225.64999999999998,0)" xlink:href="#ai"/><use transform="matrix(0.05,0,0,0.05,238.59999999999997,0)" xlink:href="#U"/><use transform="matrix(0.05,0,0,0.05,248.59999999999997,0)" xlink:href="#D"/><use transform="matrix(0.05,0,0,0.05,254.54999999999995,0)" xlink:href="#D"/><use transform="matrix(0.05,0,0,0.05,260.49999999999994,0)" xlink:href="#M"/><use transform="matrix(0.05,0,0,0.05,270.49999999999994,0)" xlink:href="#F"/><use transform="matrix(0.05,0,0,0.05,280.49999999999994,0)" xlink:href="#B"/></g><path d="M137-103V0h-34v-103L8-248h37l75 118 75-118h37" id="aj"/><g id="t"><use transform="matrix(0.05,0,0,0.05,0,0)" xlink:href="#aj"/><use transform="matrix(0.05,0,0,0.05,10.35,0)" xlink:href="#M"/><use transform="matrix(0.05,0,0,0.05,20.35,0)" xlink:href="#ah"/></g><g id="u"><use transform="matrix(0.05,0,0,0.05,0,0)" xlink:href="#C"/><use transform="matrix(0.05,0,0,0.05,10,0)" xlink:href="#D"/><use transform="matrix(0.05,0,0,0.05,15.949999999999998,0)" xlink:href="#D"/><use transform="matrix(0.05,0,0,0.05,21.9,0)" xlink:href="#E"/><use transform="matrix(0.05,0,0,0.05,26.899999999999995,0)" xlink:href="#L"/><use transform="matrix(0.05,0,0,0.05,30.849999999999994,0)" xlink:href="#B"/><use transform="matrix(0.05,0,0,0.05,35.849999999999994,0)" xlink:href="#M"/><use transform="matrix(0.05,0,0,0.05,45.849999999999994,0)" xlink:href="#D"/><use transform="matrix(0.05,0,0,0.05,51.79999999999999,0)" xlink:href="#C"/><use transform="matrix(0.05,0,0,0.05,61.79999999999999,0)" xlink:href="#N"/><use transform="matrix(0.05,0,0,0.05,71.8,0)" xlink:href="#O"/><use transform="matrix(0.05,0,0,0.05,75.75,0)" xlink:href="#M"/><use transform="matrix(0.05,0,0,0.05,85.75,0)" xlink:href="#P"/><use transform="matrix(0.05,0,0,0.05,90.75,0)" xlink:href="#F"/><use transform="matrix(0.05,0,0,0.05,100.75,0)" xlink:href="#Q"/><use transform="matrix(0.05,0,0,0.05,110.75,0)" xlink:href="#M"/><use transform="matrix(0.05,0,0,0.05,120.75,0)" xlink:href="#R"/><use transform="matrix(0.05,0,0,0.05,129.75,0)" xlink:href="#K"/></g><g id="v"><use transform="matrix(0.05,0,0,0.05,0,0)" xlink:href="#T"/><use transform="matrix(0.05,0,0,0.05,9,0)" xlink:href="#U"/><use transform="matrix(0.05,0,0,0.05,19,0)" xlink:href="#D"/><use transform="matrix(0.05,0,0,0.05,24.95,0)" xlink:href="#D"/><use transform="matrix(0.05,0,0,0.05,30.899999999999995,0)" xlink:href="#M"/><use transform="matrix(0.05,0,0,0.05,40.9,0)" xlink:href="#F"/><use transform="matrix(0.05,0,0,0.05,50.9,0)" xlink:href="#B"/><use transform="matrix(0.05,0,0,0.05,55.900000000000006,0)" xlink:href="#V"/><use transform="matrix(0.05,0,0,0.05,67.9,0)" xlink:href="#O"/><use transform="matrix(0.05,0,0,0.05,71.85000000000001,0)" xlink:href="#M"/><use transform="matrix(0.05,0,0,0.05,81.85000000000001,0)" xlink:href="#W"/><use transform="matrix(0.05,0,0,0.05,96.80000000000001,0)" xlink:href="#M"/><use transform="matrix(0.05,0,0,0.05,106.80000000000001,0)" xlink:href="#F"/><use transform="matrix(0.05,0,0,0.05,116.80000000000001,0)" xlink:href="#B"/></g><path d="M190 0L58-211 59 0H30v-248h39L202-35l-2-213h31V0h-41" id="ak"/><g id="w"><use transform="matrix(0.05,0,0,0.05,0,0)" xlink:href="#ak"/><use transform="matrix(0.05,0,0,0.05,12.950000000000001,0)" xlink:href="#Y"/></g><g id="x"><use transform="matrix(0.05,0,0,0.05,0,0)" xlink:href="#T"/><use transform="matrix(0.05,0,0,0.05,9,0)" xlink:href="#U"/><use transform="matrix(0.05,0,0,0.05,19,0)" xlink:href="#D"/><use transform="matrix(0.05,0,0,0.05,24.95,0)" xlink:href="#D"/><use transform="matrix(0.05,0,0,0.05,30.899999999999995,0)" xlink:href="#M"/><use transform="matrix(0.05,0,0,0.05,40.9,0)" xlink:href="#F"/><use transform="matrix(0.05,0,0,0.05,50.9,0)" xlink:href="#B"/><use transform="matrix(0.05,0,0,0.05,55.900000000000006,0)" xlink:href="#P"/><use transform="matrix(0.05,0,0,0.05,60.900000000000006,0)" xlink:href="#F"/><use transform="matrix(0.05,0,0,0.05,70.9,0)" xlink:href="#Q"/><use transform="matrix(0.05,0,0,0.05,80.9,0)" xlink:href="#M"/><use transform="matrix(0.05,0,0,0.05,90.9,0)" xlink:href="#R"/></g><path d="M177-190C167-65 218 103 67 71c-23-6-38-20-44-43l32-5c15 47 100 32 89-28v-30C133-14 115 1 83 1 29 1 15-40 15-95c0-56 16-97 71-98 29-1 48 16 59 35 1-10 0-23 2-32h30zM94-22c36 0 50-32 50-73 0-42-14-75-50-75-39 0-46 34-46 75s6 73 46 73" id="al"/><g id="y"><use transform="matrix(0.05,0,0,0.05,0,0)" xlink:href="#C"/><use transform="matrix(0.05,0,0,0.05,10,0)" xlink:href="#D"/><use transform="matrix(0.05,0,0,0.05,15.949999999999998,0)" xlink:href="#D"/><use transform="matrix(0.05,0,0,0.05,20.9,0)" xlink:href="#J"/><use transform="matrix(0.05,0,0,0.05,25.899999999999995,0)" xlink:href="#O"/><use transform="matrix(0.05,0,0,0.05,29.849999999999994,0)" xlink:href="#M"/><use transform="matrix(0.05,0,0,0.05,39.849999999999994,0)" xlink:href="#F"/><use transform="matrix(0.05,0,0,0.05,49.849999999999994,0)" xlink:href="#al"/><use transform="matrix(0.05,0,0,0.05,59.849999999999994,0)" xlink:href="#B"/><use transform="matrix(0.05,0,0,0.05,64.85,0)" xlink:href="#ac"/></g><g id="z"><use transform="matrix(0.05,0,0,0.05,0,0)" xlink:href="#Z"/><use transform="matrix(0.05,0,0,0.05,5.95,0)" xlink:href="#G"/></g></defs></g></svg>